<?xml version="1.0" encoding="UTF-8"?>
<svg width="105px" height="82px" viewBox="0 0 105 82" version="1.1" xmlns="http://www.w3.org/2000/svg" xmlns:xlink="http://www.w3.org/1999/xlink">
    <!-- Generator: Sketch 41 (35326) - http://www.bohemiancoding.com/sketch -->
    <title>ABS Icon</title>
    <desc>Created with Sketch.</desc>
    <defs></defs>
    <g id="Page-1" stroke="none" stroke-width="1" fill="none" fill-rule="evenodd">
        <g id="Artboard" transform="translate(-271.000000, -630.000000)" fill="#FFFFFF">
            <path d="M323.467115,634.419335 C302.915927,634.419335 286.197371,651.038004 286.197371,671.463201 C286.197371,691.888398 302.915927,708.507067 323.467115,708.507067 C344.016855,708.507067 360.736858,691.888398 360.736858,671.463201 C360.736858,651.038004 344.016855,634.419335 323.467115,634.419335 Z M323.467115,699.875487 C307.70527,699.875487 294.881583,687.130958 294.881583,671.463201 C294.881583,655.795444 307.70527,643.050915 323.467115,643.050915 C339.230407,643.050915 352.052646,655.795444 352.052646,671.463201 C352.052646,687.130958 339.230407,699.875487 323.467115,699.875487 Z M375.934229,671.463201 C375.934229,686.630327 369.293702,701.023487 357.7162,710.951243 C356.895542,711.656156 355.885278,711.99998 354.880804,711.99998 C353.66212,711.99998 352.450672,711.492156 351.592383,710.50384 C350.02633,708.698401 350.228961,705.973698 352.043962,704.417137 C361.70949,696.129381 367.251465,684.118537 367.251465,671.46464 C367.251465,658.301479 361.343306,645.982775 351.039488,637.667686 C349.178172,636.164353 348.895935,633.446843 350.40554,631.595369 C351.916593,629.746773 354.647778,629.46193 356.514884,630.965264 C368.855149,640.927546 375.934229,655.687549 375.934229,671.463201 Z M294.891715,704.417137 C296.706715,705.973698 296.909347,708.699839 295.343294,710.50384 C294.483557,711.492156 293.272109,711.99998 292.051977,711.99998 C291.047504,711.99998 290.03724,711.656156 289.21803,710.951243 C277.640527,701.023487 271,686.630327 271,671.463201 C271,655.687549 278.07908,640.926108 290.420793,630.965264 C292.283556,629.463369 295.017636,629.745334 296.528689,631.595369 C298.039742,633.446843 297.756057,636.164353 295.894741,637.667686 C285.592371,645.982775 279.682765,658.301479 279.682765,671.46464 C279.684212,684.117098 285.227634,696.129381 294.891715,704.417137 Z M310.633297,659.328637 C310.452375,658.574813 309.769217,658.078497 308.976059,658.078497 C308.185796,658.078497 307.499743,658.586322 307.32027,659.340146 L301.558295,680.110606 C301.306453,681.042817 301.846321,681.999484 302.746585,682.251238 C303.683032,682.501554 304.61948,682.019624 304.872769,681.126255 C304.872769,681.126255 305.304085,678.912255 305.916322,677.473658 L312.038692,677.473658 C312.649481,678.912255 313.082244,681.126255 313.082244,681.126255 C313.334086,682.019624 314.270534,682.446887 315.208429,682.196571 C316.108692,681.944817 316.648561,681.016922 316.395271,680.083273 L310.633297,659.328637 Z M306.887506,673.157868 C307.572112,671.719271 308.329086,667.934323 308.976059,665.606674 C309.624481,667.934323 310.380007,671.719271 311.06606,673.157868 L306.887506,673.157868 Z M324.677115,658.771901 L320.353825,658.771901 C319.381193,658.771901 319.125009,659.000637 319.125009,659.932848 L319.125009,680.406957 C319.125009,681.373694 319.381193,681.789448 320.353825,681.789448 L324.677115,681.789448 C327.988694,681.789448 330.703958,679.44022 330.703958,676.111307 L330.703958,674.107342 C330.703958,672.422745 329.983168,670.919411 328.868695,669.813131 C329.983168,668.738499 330.703958,667.1992 330.703958,665.516042 L330.703958,664.227059 C330.703958,660.898147 327.988694,658.771901 324.677115,658.771901 Z M327.809221,676.111307 C327.809221,677.541272 326.115799,678.912255 324.677115,678.912255 L322.019746,678.912255 L322.019746,671.719271 L324.677115,671.719271 C326.115799,671.719271 327.809221,672.6745 327.809221,674.107342 L327.809221,676.111307 Z M327.809221,665.516042 C327.809221,666.946007 326.115799,667.403481 324.677115,667.403481 L322.019746,667.403481 L322.019746,661.649094 L324.677115,661.649094 C326.115799,661.649094 327.809221,662.795656 327.809221,664.225621 L327.809221,665.516042 Z M345.019882,676.540009 C344.876592,678.331062 343.977776,679.94229 342.573829,681.016922 C341.133697,682.088677 339.33317,682.482852 337.565933,682.162045 C335.80159,681.803834 334.28909,680.693238 333.426458,679.191343 C332.921327,678.368465 333.209353,677.295272 334.037248,676.827728 C334.865143,676.363062 335.910143,676.649342 336.415275,677.470781 C336.811854,678.152676 337.461722,678.617343 338.253433,678.795729 C339.045144,678.941027 339.838302,678.759764 340.485276,678.259132 C341.135144,677.794465 341.492644,677.076606 341.56646,676.291132 C341.640276,675.504219 341.350802,674.715868 340.812381,674.143307 L335.048959,668.272393 C333.824485,667.058218 333.210801,665.337656 333.358432,663.619972 C333.501722,661.902287 334.364353,660.327024 335.735012,659.289795 C337.101328,658.248251 338.901854,657.858392 340.596723,658.179199 C342.28725,658.537409 343.763566,659.576076 344.627645,661.082287 C345.095145,661.902287 344.811461,662.942393 343.982118,663.444463 C343.152776,663.90913 342.109223,663.62141 341.641723,662.798533 C341.243697,662.15548 340.632907,661.72534 339.912118,661.548392 C339.156591,661.401655 338.435801,661.582919 337.823565,662.049024 C337.20988,662.480603 336.85238,663.156743 336.816196,663.910568 C336.74238,664.624112 336.997117,665.340533 337.536986,665.87713 L343.259881,671.749482 C344.517645,673.034149 345.164618,674.784921 345.019882,676.540009 Z" id="ABS-Icon"></path>
        </g>
    </g>
</svg>