<?xml version="1.0" encoding="UTF-8"?>
<svg width="1920px" height="1080px" viewBox="0 0 1920 1080" version="1.1" xmlns="http://www.w3.org/2000/svg" xmlns:xlink="http://www.w3.org/1999/xlink" style="background: #000000;">
    <!-- Generator: Sketch 41 (35326) - http://www.bohemiancoding.com/sketch -->
    <title>Artboard</title>
    <desc>Created with Sketch.</desc>
    <defs>
        <radialGradient cx="50%" cy="100%" fx="50%" fy="100%" r="65.5685917%" id="radialGradient-1">
            <stop stop-color="#FF0000" offset="0%"></stop>
            <stop stop-color="#000000" offset="100%"></stop>
        </radialGradient>
        <radialGradient cx="50%" cy="100%" fx="50%" fy="100%" r="100%" id="radialGradient-2">
            <stop stop-color="#00B2FF" offset="0%"></stop>
            <stop stop-color="#000000" offset="86.2982302%"></stop>
        </radialGradient>
        <radialGradient cx="50%" cy="100%" fx="50%" fy="100%" r="73.7185108%" id="radialGradient-3">
            <stop stop-color="#73FF00" offset="0%"></stop>
            <stop stop-color="#000000" offset="100%"></stop>
        </radialGradient>
    </defs>
    <g id="Page-1" stroke="none" stroke-width="1" fill="none" fill-rule="evenodd">
        <g id="Artboard">
            <circle id="Death-Bg" stroke="#FFFFFF" stroke-width="5" fill="url(#radialGradient-1)" cx="982" cy="880" r="548"></circle>
            <path d="M976.22799,820 C910.933161,820 858,872.933161 858,938.233245 L858,998.45204 C858,1013.06009 869.841453,1024.89892 884.446875,1024.89892 L926.747163,1024.89892 L926.747163,1041.78487 C926.747163,1047.42579 931.321374,1052 936.962289,1052 C942.60583,1052 947.177414,1047.42579 947.177414,1041.78487 L947.177414,1034.90123 C947.177414,1033.31694 948.464814,1032.02954 950.049104,1032.02954 C951.633394,1032.02954 952.923422,1033.31694 952.923422,1034.90123 L952.923422,1041.78487 C952.923422,1047.42579 957.495006,1052 963.138547,1052 C968.779461,1052 973.353673,1047.42579 973.353673,1041.78487 L973.353673,1034.90123 C973.353673,1033.31694 974.638445,1032.02954 976.222736,1032.02954 C977.812281,1032.02954 979.099681,1033.31694 979.099681,1034.90123 L979.099681,1041.78487 C979.099681,1047.42579 983.673892,1052 989.314806,1052 C994.95572,1052 999.529931,1047.42579 999.529931,1041.78487 L999.529931,1034.90123 C999.529931,1033.31694 1000.8147,1032.02954 1002.40162,1032.02954 C1003.98854,1032.02954 1005.27331,1033.31694 1005.27331,1034.90123 L1005.27331,1041.78487 C1005.27331,1047.42579 1009.84752,1052 1015.48844,1052 C1021.12935,1052 1025.70356,1047.42579 1025.70356,1041.78487 L1025.70356,1024.89892 L1068.00385,1024.89892 C1082.61978,1024.89629 1094.46124,1013.05746 1094.46124,998.449412 L1094.46124,938.233245 C1094.46124,872.933161 1041.52807,820 976.22799,820 Z M961.777581,1007.09076 L973.372064,987.017825 C974.6437,984.816108 977.825417,984.816108 979.094426,987.017825 L990.686281,1007.09076 C991.957917,1009.29773 990.371,1012.05119 987.8251,1012.05119 L981.979253,1012.05119 L979.107563,1012.05119 L973.361555,1012.05119 L970.487237,1012.05119 L964.644017,1012.05119 C962.098118,1012.05119 960.503318,1009.29773 961.777581,1007.09076 Z M890.718353,960.342371 C890.718353,942.762791 904.969083,928.506806 922.553917,928.506806 C940.133496,928.506806 954.389482,942.762791 954.389482,960.342371 C954.389482,977.924577 940.133496,992.177935 922.553917,992.177935 C904.969083,992.180562 890.718353,977.927204 890.718353,960.342371 Z M1029.90995,992.180562 C1012.33037,992.180562 998.074381,977.927204 998.074381,960.344998 C998.074381,942.765419 1012.33037,928.509434 1029.90995,928.509434 C1047.49215,928.509434 1061.74814,942.765419 1061.74814,960.344998 C1061.74551,977.927204 1047.48952,992.180562 1029.90995,992.180562 Z" id="Skull-Icon" fill-opacity="0.40978827" fill="#858585"></path>
            <g id="Death-Meter" transform="translate(487.000000, 375.000000)" font-size="78" font-family="Digital-7Mono, Digital-7" fill="#FFFFFF" font-weight="normal">
                <text id="100">
                    <tspan x="869.818182" y="426">100</tspan>
                </text>
                <text id="90">
                    <tspan x="862.545455" y="311">90</tspan>
                </text>
                <text id="80">
                    <tspan x="807.545455" y="205">80</tspan>
                </text>
                <text id="70">
                    <tspan x="712.545455" y="125">70</tspan>
                </text>
                <text id="60">
                    <tspan x="590.545455" y="75">60</tspan>
                </text>
                <text id="50">
                    <tspan x="454.545455" y="57">50</tspan>
                </text>
                <text id="40">
                    <tspan x="319.545455" y="75">40</tspan>
                </text>
                <text id="30">
                    <tspan x="210.545455" y="125">30</tspan>
                </text>
                <text id="20">
                    <tspan x="132.545455" y="205">20</tspan>
                </text>
                <text id="10">
                    <tspan x="66.5454545" y="311">10</tspan>
                </text>
                <text id="0">
                    <tspan x="38.2727273" y="426">0</tspan>
                </text>
            </g>
            <ellipse id="Speed-Bg" stroke="#FFFFFF" stroke-width="5" fill="url(#radialGradient-2)" cx="321.791258" cy="1016.43156" rx="174.791258" ry="177.431559"></ellipse>
            <g id="Speed-Meter" transform="translate(119.000000, 854.000000)" font-size="38" font-family="Digital-7Mono, Digital-7" fill="#FFFFFF" font-weight="normal">
                <text id="200">
                    <tspan x="315.090909" y="185">200</tspan>
                </text>
                <text id="180">
                    <tspan x="310.090909" y="144">180</tspan>
                </text>
                <text id="160">
                    <tspan x="293.090909" y="106">160</tspan>
                </text>
                <text id="140">
                    <tspan x="262.090909" y="70">140</tspan>
                </text>
                <text id="120">
                    <tspan x="221.090909" y="41">120</tspan>
                </text>
                <text id="100">
                    <tspan x="171.090909" y="28">100</tspan>
                </text>
                <text id="80">
                    <tspan x="134.727273" y="44">80</tspan>
                </text>
                <text id="60">
                    <tspan x="98.7272727" y="71">60</tspan>
                </text>
                <text id="40">
                    <tspan x="66.7272727" y="108">40</tspan>
                </text>
                <text id="20">
                    <tspan x="43.7272727" y="148">20</tspan>
                </text>
                <text id="0">
                    <tspan x="47.3636364" y="191">0</tspan>
                </text>
            </g>
            <g id="RPM-Meter" transform="translate(1419.000000, 839.000000)">
                <ellipse id="RPM-Bg" stroke="#FFFFFF" stroke-width="5" fill="url(#radialGradient-3)" cx="204.791258" cy="177.431559" rx="174.791258" ry="177.431559"></ellipse>
                <text id="200" font-family="Digital-7Mono, Digital-7" font-size="38" font-weight="normal" fill="#FFFFFF">
                    <tspan x="315.090909" y="200">200</tspan>
                </text>
                <text id="180" font-family="Digital-7Mono, Digital-7" font-size="38" font-weight="normal" fill="#FFFFFF">
                    <tspan x="310.090909" y="159">180</tspan>
                </text>
                <text id="160" font-family="Digital-7Mono, Digital-7" font-size="38" font-weight="normal" fill="#FFFFFF">
                    <tspan x="293.090909" y="121">160</tspan>
                </text>
                <text id="140" font-family="Digital-7Mono, Digital-7" font-size="38" font-weight="normal" fill="#FFFFFF">
                    <tspan x="262.090909" y="85">140</tspan>
                </text>
                <text id="120" font-family="Digital-7Mono, Digital-7" font-size="38" font-weight="normal" fill="#FFFFFF">
                    <tspan x="221.090909" y="56">120</tspan>
                </text>
                <text id="100" font-family="Digital-7Mono, Digital-7" font-size="38" font-weight="normal" fill="#FFFFFF">
                    <tspan x="171.090909" y="43">100</tspan>
                </text>
                <text id="80" font-family="Digital-7Mono, Digital-7" font-size="38" font-weight="normal" fill="#FFFFFF">
                    <tspan x="134.727273" y="59">80</tspan>
                </text>
                <text id="60" font-family="Digital-7Mono, Digital-7" font-size="38" font-weight="normal" fill="#FFFFFF">
                    <tspan x="98.7272727" y="86">60</tspan>
                </text>
                <text id="40" font-family="Digital-7Mono, Digital-7" font-size="38" font-weight="normal" fill="#FFFFFF">
                    <tspan x="66.7272727" y="123">40</tspan>
                </text>
                <text id="20" font-family="Digital-7Mono, Digital-7" font-size="38" font-weight="normal" fill="#FFFFFF">
                    <tspan x="43.7272727" y="163">20</tspan>
                </text>
                <text id="0" font-family="Digital-7Mono, Digital-7" font-size="38" font-weight="normal" fill="#FFFFFF">
                    <tspan x="47.3636364" y="206">0</tspan>
                </text>
            </g>
            <g id="Battery" transform="translate(1627.000000, 522.500000) rotate(-90.000000) translate(-1627.000000, -522.500000) translate(1436.500000, 481.500000)">
                <path d="M74.046065,64.6282701 L72.046065,64.6282701 L72.046065,2.25327006 C72.046065,1.37827006 71.296065,0.628270056 70.421065,0.628270056 L24.921065,0.628270056 C24.046065,0.628270056 23.296065,1.37827006 23.296065,2.25327006 L23.296065,42.7532701 C17.796065,44.7532701 13.921065,50.0032701 13.921065,56.1282701 C13.921065,57.5032701 12.796065,58.6282701 11.421065,58.6282701 C10.046065,58.6282701 8.92106496,57.5032701 8.92106496,56.1282701 C8.79606496,50.3782701 8.79606496,45.5032701 8.67106496,41.5032701 L11.921065,40.2532701 L11.921065,38.8782701 L13.296065,38.8782701 C15.046065,38.8782701 16.546065,37.3782701 16.546065,35.6282701 L16.546065,29.2532701 C16.546065,27.5032701 15.046065,26.0032701 13.296065,26.0032701 L11.671065,26.0032701 C11.546065,24.2532701 10.046065,22.8782701 8.29606496,22.8782701 L7.67106496,22.8782701 L7.67106496,18.1282701 C7.67106496,16.0032701 8.54606496,14.0032701 10.046065,12.5032701 L14.546065,8.50327006 L12.296065,6.00327006 L7.79606496,10.1282701 L7.79606496,10.1282701 C5.54606496,12.2532701 4.29606496,15.1282701 4.29606496,18.1282701 L4.29606496,22.8782701 C2.42106496,22.8782701 0.921064964,22.8782701 0.921064964,24.7532701 L2.17106496,43.1282701 C2.17106496,43.6282701 2.79606496,44.0032701 3.29606496,43.8782701 L5.04606496,43.2532701 C5.04606496,46.8782701 5.17106496,51.2532701 5.17106496,56.3782701 C5.17106496,59.7532701 8.04606496,62.5032701 11.421065,62.5032701 C14.921065,62.5032701 17.671065,59.7532701 17.671065,56.2532701 C17.671065,52.2532701 19.921065,48.7532701 23.171065,47.0032701 L23.171065,64.7532701 L21.171065,64.7532701 C20.171065,64.7532701 19.296065,65.6282701 19.296065,66.6282701 L19.296065,75.6282701 L75.921065,75.6282701 L75.921065,66.5032701 C75.921065,65.3782701 75.046065,64.6282701 74.046065,64.6282701 Z M13.296065,27.2532701 C14.421065,27.2532701 15.296065,28.1282701 15.296065,29.2532701 L15.296065,35.6282701 C15.296065,36.7532701 14.421065,37.6282701 13.296065,37.6282701 L11.921065,37.6282701 L11.796065,31.6282701 L13.546065,33.3782701 L14.421065,32.5032701 L11.796065,29.8782701 L11.796065,27.2532701 L13.296065,27.2532701 Z M66.296065,30.8782701 L29.046065,30.8782701 L29.046065,7.12827006 L66.296065,7.12827006 L66.296065,30.8782701 Z" id="Gas-Station-Icon" fill="#FFFFFF" transform="translate(38.421065, 38.128270) rotate(-270.000000) translate(-38.421065, -38.128270) "></path>
                <rect id="Battery-Bar-Bg" fill-opacity="0.437018795" fill="#D8D8D8" x="121" y="2" width="260" height="80"></rect>
            </g>
        </g>
    </g>
</svg>