<?xml version="1.0" encoding="UTF-8"?>
<svg width="128px" height="202px" viewBox="0 0 128 202" version="1.1" xmlns="http://www.w3.org/2000/svg" xmlns:xlink="http://www.w3.org/1999/xlink">
    <!-- Generator: Sketch 41 (35326) - http://www.bohemiancoding.com/sketch -->
    <title>Car Icon</title>
    <desc>Created with Sketch.</desc>
    <defs></defs>
    <g id="Page-1" stroke="none" stroke-width="1" fill="none" fill-rule="evenodd">
        <g id="Artboard" transform="translate(-257.000000, -155.000000)">
            <g id="Car-Icon" transform="translate(257.000000, 155.000000)">
                <path d="M111.315068,66.270075 L111.315068,32.9682282 C111.315068,14.8794527 96.5470169,0.0795454545 78.4971772,0.0795454545 L49.7815231,0.0795454545 C31.7316834,0.0795454545 16.9636327,14.8794527 16.9636327,32.9682282 L16.9636327,66.270075 C7.60232946,68.1755631 0.5546875,76.4696778 0.5546875,86.4123377 L16.9636327,86.4123377 L16.9636327,168.634045 C16.9636327,186.72282 31.7316834,201.522727 49.7815231,201.522727 L78.4971772,201.522727 C96.5470169,201.522727 111.315068,186.72282 111.315068,168.634045 L111.315068,86.4123377 L127.724013,86.4123377 C127.724013,76.4696778 120.676371,68.1735075 111.315068,66.270075 Z" id="Shape" fill="#FFFFFF"></path>
                <path d="M92.8550043,86.4123377 C92.8550043,86.4123377 80.5482954,84.356795 64.1393502,84.356795 C47.730405,84.356795 35.4236961,86.4123377 35.4236961,86.4123377 L27.2192235,61.7458256 C27.2192235,61.7458256 39.5259324,53.5236549 64.1393502,53.5236549 C88.752768,53.5236549 101.059477,61.7458256 101.059477,61.7458256 L92.8550043,86.4123377 Z" id="Path" fill="#000000"></path>
                <path d="M64.1393502,174.800673 C39.5259324,174.800673 27.2192235,166.578502 27.2192235,166.578502 L35.4236961,141.91199 C35.4236961,141.91199 47.730405,143.967532 64.1393502,143.967532 C80.5482954,143.967532 92.8550043,141.91199 92.8550043,141.91199 L101.059477,166.578502 C101.059477,166.578502 88.752768,174.800673 64.1393502,174.800673 Z" id="Path" fill="#000000"></path>
            </g>
        </g>
    </g>
</svg>